<svg viewBox="0 0 1024 1024" xmlns="http://www.w3.org/2000/svg">
  <defs>
    <linearGradient id="bgGradC" x1="0%" y1="0%" x2="100%" y2="100%">
      <stop offset="0%" stop-color="#5b3fc7"/>
      <stop offset="100%" stop-color="#2d1a78"/>
    </linearGradient>
  </defs>

  <rect width="1024" height="1024" rx="224" fill="url(#bgGradC)"/>

  <g transform="translate(192 192)">
    <rect x="0" y="0" width="380" height="380" rx="32" fill="#a78bfa"/>
    <rect x="400" y="0" width="240" height="180" rx="24" fill="#7c5fd5"/>
    <rect x="400" y="200" width="240" height="180" rx="24" fill="#c4b5fd"/>
    <rect x="0" y="400" width="180" height="240" rx="24" fill="#9b7eed"/>
    <rect x="200" y="400" width="180" height="240" rx="24" fill="#d8c8ff"/>
    <rect x="400" y="400" width="240" height="240" rx="28" fill="#5b3fc7"/>
  </g>

  <g transform="translate(512 512)">
    <circle cx="0" cy="0" r="120" fill="#ffffff" fill-opacity="0.95"/>
    <circle cx="0" cy="0" r="48" fill="#5b3fc7"/>
    <circle cx="0" cy="0" r="20" fill="#ffffff"/>
  </g>

  <g fill="#ffffff" fill-opacity="0.85">
    <circle cx="512" cy="372" r="6"/>
    <circle cx="652" cy="512" r="6"/>
    <circle cx="512" cy="652" r="6"/>
    <circle cx="372" cy="512" r="6"/>
  </g>
</svg>
